# 3ds Max Wavefront OBJ Exporter v0.97b - (c)2007 guruware
# File Created: 16.11.2017 12:29:16

mtllib polka-ace58.mtl

#
# object Box012
#

v  -23.6585 27.1848 20.4804
v  -23.6585 27.1848 -50.3858
v  -7.9105 27.1848 -50.3858
v  -7.9105 27.1848 20.4804
v  -23.6585 29.5470 20.4804
v  -7.9105 29.5470 20.4804
v  -7.9105 29.5470 -50.3858
v  -23.6585 29.5470 -50.3858
# 8 vertices

vn 0.0000 -1.0000 -0.0000
vn 0.0000 1.0000 -0.0000
vn 0.0000 0.0000 1.0000
vn 1.0000 0.0000 -0.0000
vn 0.0000 0.0000 -1.0000
vn -1.0000 0.0000 -0.0000
# 6 vertex normals

vt 0.0227 0.3834 0.4881
vt 0.9773 0.3834 0.4881
vt 0.9773 0.6166 0.4881
vt 0.0227 0.6166 0.4881
vt 0.9773 0.3834 0.6098
vt 0.9773 0.6166 0.6098
vt 0.0227 0.6166 0.6098
vt 0.0227 0.3834 0.6098
vt 0.3834 0.4881 0.9773
vt 0.6166 0.4881 0.9773
vt 0.6166 0.6098 0.9773
vt 0.3834 0.6098 0.9773
vt 0.0227 0.4881 0.6166
vt 0.9773 0.4881 0.6166
vt 0.9773 0.6098 0.6166
vt 0.0227 0.6098 0.6166
vt 0.3834 0.4881 0.0227
vt 0.6166 0.4881 0.0227
vt 0.6166 0.6098 0.0227
vt 0.3834 0.6098 0.0227
vt 0.0227 0.4881 0.3834
vt 0.9773 0.4881 0.3834
vt 0.9773 0.6098 0.3834
vt 0.0227 0.6098 0.3834
# 24 texture coords

g Box012
usemtl wire_214229166
s 2
f 1/1/1 2/2/1 3/3/1 4/4/1 
s 4
f 5/5/2 6/6/2 7/7/2 8/8/2 
s 8
f 1/9/3 4/10/3 6/11/3 5/12/3 
s 16
f 4/13/4 3/14/4 7/15/4 6/16/4 
s 32
f 3/17/5 2/18/5 8/19/5 7/20/5 
s 64
f 2/21/6 1/22/6 5/23/6 8/24/6 
# 6 polygons

#
# object Box013
#

v  -23.6585 12.7591 20.4804
v  -23.6585 12.7591 -50.3858
v  -7.9105 12.7591 -50.3858
v  -7.9105 12.7591 20.4804
v  -23.6585 15.1213 20.4804
v  -7.9105 15.1213 20.4804
v  -7.9105 15.1213 -50.3858
v  -23.6585 15.1213 -50.3858
# 8 vertices

vn 0.0000 -1.0000 -0.0000
vn 0.0000 1.0000 -0.0000
vn 0.0000 0.0000 1.0000
vn 1.0000 0.0000 -0.0000
vn 0.0000 0.0000 -1.0000
vn -1.0000 0.0000 -0.0000
# 6 vertex normals

vt 0.1019 0.3834 0.4881
vt 1.0565 0.3834 0.4881
vt 1.0565 0.6166 0.4881
vt 0.1019 0.6166 0.4881
vt 0.8981 0.3834 0.6098
vt 0.8981 0.6166 0.6098
vt -0.0565 0.6166 0.6098
vt -0.0565 0.3834 0.6098
vt 0.3834 0.4881 0.8981
vt 0.6166 0.4881 0.8981
vt 0.6166 0.6098 0.8981
vt 0.3834 0.6098 0.8981
vt 0.1019 0.4881 0.6166
vt 1.0565 0.4881 0.6166
vt 1.0565 0.6098 0.6166
vt 0.1019 0.6098 0.6166
vt 0.3834 0.4881 -0.0565
vt 0.6166 0.4881 -0.0565
vt 0.6166 0.6098 -0.0565
vt 0.3834 0.6098 -0.0565
vt -0.0565 0.4881 0.3834
vt 0.8981 0.4881 0.3834
vt 0.8981 0.6098 0.3834
vt -0.0565 0.6098 0.3834
# 24 texture coords

g Box013
usemtl wire_214229166
s 2
f 9/25/7 10/26/7 11/27/7 12/28/7 
s 4
f 13/29/8 14/30/8 15/31/8 16/32/8 
s 8
f 9/33/9 12/34/9 14/35/9 13/36/9 
s 16
f 12/37/10 11/38/10 15/39/10 14/40/10 
s 32
f 11/41/11 10/42/11 16/43/11 15/44/11 
s 64
f 10/45/12 9/46/12 13/47/12 16/48/12 
# 6 polygons

#
# object C_Ext001
#

v  -8.7081 27.5720 -44.3930
v  -8.7081 0.0129 -44.3930
v  -8.7081 0.0129 -43.4087
v  -8.7081 26.5877 -43.4087
v  -8.7081 27.5720 14.6621
v  -8.7081 26.5877 13.6779
v  -8.7081 0.0129 14.6621
v  -8.7081 0.0129 13.6779
v  -7.7239 27.5720 -44.3930
v  -7.7239 0.0129 -44.3930
v  -7.7239 27.5720 14.6621
v  -7.7239 0.0129 14.6621
v  -7.7239 0.0129 13.6779
v  -7.7239 26.5877 13.6779
v  -7.7239 26.5877 -43.4087
v  -7.7239 0.0129 -43.4087
# 16 vertices

vn -1.0000 0.0000 -0.0000
vn 0.0000 -0.0000 -1.0000
vn 0.0000 1.0000 -0.0000
vn 0.0000 0.0000 1.0000
vn -0.0000 -1.0000 0.0000
vn 1.0000 -0.0000 -0.0000
# 6 vertex normals

vt 1.0000 0.0000 0.0000
vt 0.0000 0.0000 0.0000
vt 0.0000 0.0167 0.0000
vt 0.9643 0.0167 0.0000
vt 1.0000 1.0000 0.0000
vt 0.9643 0.9833 0.0000
vt 0.0000 1.0000 0.0000
vt 0.0000 0.9833 0.0000
vt 0.1217 0.0000 0.0000
vt 0.1217 1.0000 0.0000
vt 0.3826 0.0000 0.0000
vt 0.3826 1.0000 0.0000
vt 0.5043 0.0000 0.0000
vt 0.5043 1.0000 0.0000
vt 0.5087 0.0000 0.0000
vt 0.5087 1.0000 0.0000
vt 0.6261 0.0000 0.0000
vt 0.6261 1.0000 0.0000
vt 0.8783 0.0000 0.0000
vt 0.8783 1.0000 0.0000
vt 0.9957 0.0000 0.0000
vt 0.9957 1.0000 0.0000
# 22 texture coords

g C_Ext001
usemtl wire_088088225
s 1
f 17/49/13 18/50/13 19/51/13 20/52/13 
f 21/53/13 17/49/13 20/52/13 22/54/13 
f 23/55/13 21/53/13 22/54/13 24/56/13 
s 2
f 25/57/14 26/50/14 18/55/14 17/58/14 
s 4
f 27/59/15 25/57/15 17/58/15 21/60/15 
s 2
f 28/61/16 27/59/16 21/60/16 23/62/16 
s 4
f 29/63/17 28/61/17 23/62/17 24/64/17 
s 2
f 30/65/14 29/63/14 24/64/14 22/66/14 
s 4
f 31/67/17 30/65/17 22/66/17 20/68/17 
s 2
f 32/69/16 31/67/16 20/68/16 19/70/16 
s 4
f 26/49/17 32/69/17 19/70/17 18/53/17 
s 1
f 31/54/18 32/56/18 26/55/18 25/53/18 
f 30/52/18 31/54/18 25/53/18 27/49/18 
f 29/51/18 30/52/18 27/49/18 28/50/18 
# 14 polygons

#
# object C_Ext002
#

v  -23.8131 27.5720 -44.3930
v  -23.8131 0.0129 -44.3930
v  -23.8131 0.0129 -43.4087
v  -23.8131 26.5877 -43.4087
v  -23.8131 27.5720 14.6621
v  -23.8131 26.5877 13.6779
v  -23.8131 0.0129 14.6621
v  -23.8131 0.0129 13.6779
v  -22.8289 27.5720 -44.3930
v  -22.8289 0.0129 -44.3930
v  -22.8289 27.5720 14.6621
v  -22.8289 0.0129 14.6621
v  -22.8289 0.0129 13.6779
v  -22.8289 26.5877 13.6779
v  -22.8289 26.5877 -43.4087
v  -22.8289 0.0129 -43.4087
# 16 vertices

vn -1.0000 0.0000 -0.0000
vn 0.0000 -0.0000 -1.0000
vn 0.0000 1.0000 -0.0000
vn 0.0000 0.0000 1.0000
vn -0.0000 -1.0000 0.0000
vn 1.0000 -0.0000 -0.0000
# 6 vertex normals

vt 1.0000 0.0000 0.0000
vt 0.0000 0.0000 0.0000
vt 0.0000 0.0167 0.0000
vt 0.9643 0.0167 0.0000
vt 1.0000 1.0000 0.0000
vt 0.9643 0.9833 0.0000
vt 0.0000 1.0000 0.0000
vt 0.0000 0.9833 0.0000
vt 0.1217 0.0000 0.0000
vt 0.1217 1.0000 0.0000
vt 0.3826 0.0000 0.0000
vt 0.3826 1.0000 0.0000
vt 0.5043 0.0000 0.0000
vt 0.5043 1.0000 0.0000
vt 0.5087 0.0000 0.0000
vt 0.5087 1.0000 0.0000
vt 0.6261 0.0000 0.0000
vt 0.6261 1.0000 0.0000
vt 0.8783 0.0000 0.0000
vt 0.8783 1.0000 0.0000
vt 0.9957 0.0000 0.0000
vt 0.9957 1.0000 0.0000
# 22 texture coords

g C_Ext002
usemtl wire_088088225
s 1
f 33/71/19 34/72/19 35/73/19 36/74/19 
f 37/75/19 33/71/19 36/74/19 38/76/19 
f 39/77/19 37/75/19 38/76/19 40/78/19 
s 2
f 41/79/20 42/72/20 34/77/20 33/80/20 
s 4
f 43/81/21 41/79/21 33/80/21 37/82/21 
s 2
f 44/83/22 43/81/22 37/82/22 39/84/22 
s 4
f 45/85/23 44/83/23 39/84/23 40/86/23 
s 2
f 46/87/20 45/85/20 40/86/20 38/88/20 
s 4
f 47/89/23 46/87/23 38/88/23 36/90/23 
s 2
f 48/91/22 47/89/22 36/90/22 35/92/22 
s 4
f 42/71/23 48/91/23 35/92/23 34/75/23 
s 1
f 47/76/24 48/78/24 42/77/24 41/75/24 
f 46/74/24 47/76/24 41/75/24 43/71/24 
f 45/73/24 46/74/24 43/71/24 44/72/24 
# 14 polygons

#
# object Box014
#

v  -22.8791 11.7713 -44.3959
v  -22.8791 12.7556 -44.3959
v  -8.7059 12.7556 -44.3959
v  -8.7059 11.7713 -44.3959
v  -22.8791 11.7713 -43.4117
v  -8.7059 11.7713 -43.4117
v  -8.7059 12.7556 -43.4117
v  -22.8791 12.7556 -43.4117
# 8 vertices

vn 0.0000 0.0000 -1.0000
vn 0.0000 -0.0000 1.0000
vn 0.0000 -1.0000 -0.0000
vn 1.0000 0.0000 -0.0000
vn 0.0000 1.0000 0.0000
vn -1.0000 0.0000 -0.0000
# 6 vertex normals

vt 1.0000 0.0000 0.0000
vt 1.0000 1.0000 0.0000
vt 0.0000 1.0000 0.0000
vt 0.0000 0.0000 0.0000
# 4 texture coords

g Box014
usemtl wire_177088027
s 2
f 49/93/25 50/94/25 51/95/25 52/96/25 
s 4
f 53/96/26 54/93/26 55/94/26 56/95/26 
s 8
f 49/96/27 52/93/27 54/94/27 53/95/27 
s 16
f 52/96/28 51/93/28 55/94/28 54/95/28 
s 32
f 51/96/29 50/93/29 56/94/29 55/95/29 
s 64
f 50/96/30 49/93/30 53/94/30 56/95/30 
# 6 polygons

#
# object Box015
#

v  -22.8791 26.1538 -44.3911
v  -22.8791 27.1380 -44.3911
v  -8.7059 27.1380 -44.3911
v  -8.7059 26.1538 -44.3911
v  -22.8791 26.1538 -43.4068
v  -8.7059 26.1538 -43.4068
v  -8.7059 27.1380 -43.4068
v  -22.8791 27.1380 -43.4068
# 8 vertices

vn 0.0000 0.0000 -1.0000
vn 0.0000 -0.0000 1.0000
vn 0.0000 -1.0000 -0.0000
vn 1.0000 0.0000 -0.0000
vn 0.0000 1.0000 0.0000
vn -1.0000 0.0000 -0.0000
# 6 vertex normals

vt 1.0000 0.0000 0.0000
vt 1.0000 1.0000 0.0000
vt 0.0000 1.0000 0.0000
vt 0.0000 0.0000 0.0000
# 4 texture coords

g Box015
usemtl wire_177088027
s 2
f 57/97/31 58/98/31 59/99/31 60/100/31 
s 4
f 61/100/32 62/97/32 63/98/32 64/99/32 
s 8
f 57/100/33 60/97/33 62/98/33 61/99/33 
s 16
f 60/100/34 59/97/34 63/98/34 62/99/34 
s 32
f 59/100/35 58/97/35 64/98/35 63/99/35 
s 64
f 58/100/36 57/97/36 61/98/36 64/99/36 
# 6 polygons

#
# object Box016
#

v  -22.8791 11.7713 13.6614
v  -22.8791 12.7556 13.6614
v  -8.7059 12.7556 13.6614
v  -8.7059 11.7713 13.6614
v  -22.8791 11.7713 14.6456
v  -8.7059 11.7713 14.6456
v  -8.7059 12.7556 14.6456
v  -22.8791 12.7556 14.6456
# 8 vertices

vn 0.0000 0.0000 -1.0000
vn 0.0000 -0.0000 1.0000
vn 0.0000 -1.0000 -0.0000
vn 1.0000 0.0000 -0.0000
vn 0.0000 1.0000 0.0000
vn -1.0000 0.0000 -0.0000
# 6 vertex normals

vt 1.0000 0.0000 0.0000
vt 1.0000 1.0000 0.0000
vt 0.0000 1.0000 0.0000
vt 0.0000 0.0000 0.0000
# 4 texture coords

g Box016
usemtl wire_177088027
s 2
f 65/101/37 66/102/37 67/103/37 68/104/37 
s 4
f 69/104/38 70/101/38 71/102/38 72/103/38 
s 8
f 65/104/39 68/101/39 70/102/39 69/103/39 
s 16
f 68/104/40 67/101/40 71/102/40 70/103/40 
s 32
f 67/104/41 66/101/41 72/102/41 71/103/41 
s 64
f 66/104/42 65/101/42 69/102/42 72/103/42 
# 6 polygons

#
# object Box017
#

v  -22.8791 26.1538 13.6663
v  -22.8791 27.1380 13.6663
v  -8.7059 27.1380 13.6663
v  -8.7059 26.1538 13.6663
v  -22.8791 26.1538 14.6505
v  -8.7059 26.1538 14.6505
v  -8.7059 27.1380 14.6505
v  -22.8791 27.1380 14.6505
# 8 vertices

vn 0.0000 0.0000 -1.0000
vn 0.0000 -0.0000 1.0000
vn 0.0000 -1.0000 -0.0000
vn 1.0000 0.0000 -0.0000
vn 0.0000 1.0000 0.0000
vn -1.0000 0.0000 -0.0000
# 6 vertex normals

vt 1.0000 0.0000 0.0000
vt 1.0000 1.0000 0.0000
vt 0.0000 1.0000 0.0000
vt 0.0000 0.0000 0.0000
# 4 texture coords

g Box017
usemtl wire_177088027
s 2
f 73/105/43 74/106/43 75/107/43 76/108/43 
s 4
f 77/108/44 78/105/44 79/106/44 80/107/44 
s 8
f 73/108/45 76/105/45 78/106/45 77/107/45 
s 16
f 76/108/46 75/105/46 79/106/46 78/107/46 
s 32
f 75/108/47 74/105/47 80/106/47 79/107/47 
s 64
f 74/108/48 73/105/48 77/106/48 80/107/48 
# 6 polygons

#
# object Box018
#

v  -22.8791 5.0784 13.9666
v  -22.8791 6.0627 13.9666
v  -8.7059 6.0627 13.9666
v  -8.7059 5.0784 13.9666
v  -22.8791 5.0784 14.3603
v  -8.7059 5.0784 14.3603
v  -8.7059 6.0627 14.3603
v  -22.8791 6.0627 14.3603
# 8 vertices

vn 0.0000 0.0000 -1.0000
vn 0.0000 -0.0000 1.0000
vn 0.0000 -1.0000 -0.0000
vn 1.0000 0.0000 -0.0000
vn 0.0000 1.0000 0.0000
vn -1.0000 0.0000 -0.0000
# 6 vertex normals

vt 1.0000 0.0000 0.0000
vt 1.0000 1.0000 0.0000
vt 0.0000 1.0000 0.0000
vt 0.0000 0.0000 0.0000
# 4 texture coords

g Box018
usemtl wire_177088027
s 2
f 81/109/49 82/110/49 83/111/49 84/112/49 
s 4
f 85/112/50 86/109/50 87/110/50 88/111/50 
s 8
f 81/112/51 84/109/51 86/110/51 85/111/51 
s 16
f 84/112/52 83/109/52 87/110/52 86/111/52 
s 32
f 83/112/53 82/109/53 88/110/53 87/111/53 
s 64
f 82/112/54 81/109/54 85/110/54 88/111/54 
# 6 polygons

#
# object Box019
#

v  -22.8791 5.0784 -44.0978
v  -22.8791 6.0627 -44.0978
v  -8.7059 6.0627 -44.0978
v  -8.7059 5.0784 -44.0978
v  -22.8791 5.0784 -43.7041
v  -8.7059 5.0784 -43.7041
v  -8.7059 6.0627 -43.7041
v  -22.8791 6.0627 -43.7041
# 8 vertices

vn 0.0000 0.0000 -1.0000
vn 0.0000 -0.0000 1.0000
vn 0.0000 -1.0000 -0.0000
vn 1.0000 0.0000 -0.0000
vn 0.0000 1.0000 0.0000
vn -1.0000 0.0000 -0.0000
# 6 vertex normals

vt 1.0000 0.0000 0.0000
vt 1.0000 1.0000 0.0000
vt 0.0000 1.0000 0.0000
vt 0.0000 0.0000 0.0000
# 4 texture coords

g Box019
usemtl wire_177088027
s 2
f 89/113/55 90/114/55 91/115/55 92/116/55 
s 4
f 93/116/56 94/113/56 95/114/56 96/115/56 
s 8
f 89/116/57 92/113/57 94/114/57 93/115/57 
s 16
f 92/116/58 91/113/58 95/114/58 94/115/58 
s 32
f 91/116/59 90/113/59 96/114/59 95/115/59 
s 64
f 90/116/60 89/113/60 93/114/60 96/115/60 
# 6 polygons

